<svg width="20" height="20" viewBox="0 0 0.6 0.6" xmlns="http://www.w3.org/2000/svg"><path fill-rule="evenodd" clip-rule="evenodd" d="M.186.002L.19 0h.374l.003.002.031.03L.6.037V.41L.598.414l-.03.031-.004.002H.37V.44A.053.053 0 0 0 .356.405h.202V.042H.195v.192A.151.151 0 0 0 .153.23V.036L.155.033.186.002zm.252.25L.364.324a.053.053 0 0 0-.01-.012L.345.302l.059-.06L.307.146.33.123l.11.11zM.254.356L.29.322.317.35.272.396l.006.006v.04h.04V.48h-.04v.002a.156.156 0 0 1-.011.039l.05.051L.29.6.246.556A.114.114 0 0 1 .159.6.114.114 0 0 1 .072.556L.028.6 0 .572.05.521A.156.156 0 0 1 .04.483V.481H0v-.04h.04v-.04L.045.397 0 .35.028.322l.035.035a.099.099 0 0 1 .191 0zM.201.34a.06.06 0 0 0-.102.042h.12A.06.06 0 0 0 .2.34zm.012.195A.088.088 0 0 0 .238.48v-.06H.079v.06a.088.088 0 0 0 .08.08.088.088 0 0 0 .054-.026z" fill="#ffffff"/></svg>